<svg xmlns="http://www.w3.org/2000/svg" width="1200" height="630" viewBox="0 0 1200 630">
  <defs>
    <linearGradient id="bg6" x1="0" y1="0" x2="1" y2="1">
      <stop offset="0" stop-color="#0a2414"/>
      <stop offset="1" stop-color="#10361f"/>
    </linearGradient>
  </defs>
  <rect width="1200" height="630" fill="url(#bg6)"/>
  <g transform="translate(820, 120)">
    <rect x="0" y="330" width="36" height="60" rx="6" fill="#1ad379" fill-opacity="0.25"/>
    <rect x="56" y="300" width="36" height="90" rx="6" fill="#1ad379" fill-opacity="0.35"/>
    <rect x="112" y="260" width="36" height="130" rx="6" fill="#1ad379" fill-opacity="0.45"/>
    <rect x="168" y="210" width="36" height="180" rx="6" fill="#1ad379" fill-opacity="0.6"/>
    <rect x="224" y="150" width="36" height="240" rx="6" fill="#1ad379" fill-opacity="0.75"/>
    <rect x="280" y="80" width="36" height="310" rx="6" fill="#1ad379"/>
    <path d="M 18 310 L 74 280 L 130 240 L 186 190 L 242 130 L 298 60" stroke="#baf3d2" stroke-width="3" fill="none" stroke-linecap="round"/>
    <circle cx="298" cy="60" r="7" fill="#ffffff"/>
  </g>
  <text x="90" y="270" font-family="system-ui, -apple-system, sans-serif" font-size="64" font-weight="700" fill="#ffffff">Gmail Warmup</text>
  <text x="90" y="330" font-family="system-ui, -apple-system, sans-serif" font-size="30" fill="#9db5a4">A 14-day ramp that keeps you out of spam</text>
  <g transform="translate(90, 380)">
    <rect width="150" height="44" rx="22" fill="#1ad379"/>
    <text x="75" y="29" text-anchor="middle" font-family="system-ui, -apple-system, sans-serif" font-size="20" font-weight="600" fill="#0a2414">Klerk</text>
  </g>
</svg>
